<svg id="svg" xmlns="http://www.w3.org/2000/svg" xmlns:xlink="http://www.w3.org/1999/xlink" width="400" height="225" viewBox="0, 0, 400,225"><g id="svgg"><path id="path0" d="M282.842 69.327 C 282.776 69.434,281.946 69.582,280.997 69.657 C 278.262 69.874,273.486 71.414,271.268 72.795 C 270.857 73.050,270.351 73.322,270.144 73.399 C 268.964 73.835,265.618 76.665,264.649 78.047 C 263.245 80.051,263.424 84.193,264.959 85.189 C 265.064 85.257,265.547 85.774,266.033 86.338 C 266.843 87.280,268.327 88.335,269.896 89.084 C 270.240 89.248,270.755 89.513,271.042 89.673 C 271.328 89.832,272.078 90.077,272.708 90.216 C 277.260 91.222,279.849 94.104,278.527 96.695 C 275.072 103.468,253.542 107.926,253.542 101.868 C 253.542 100.178,257.076 96.276,258.734 96.136 C 259.984 96.029,260.815 94.791,259.635 94.792 C 257.900 94.793,253.844 97.893,252.903 99.936 C 250.627 104.876,256.134 106.956,266.042 104.900 C 277.951 102.429,283.708 95.385,277.378 91.029 C 276.888 90.692,276.326 90.417,276.128 90.417 C 275.931 90.417,275.198 90.147,274.499 89.817 C 272.789 89.009,271.496 88.437,270.663 88.119 C 270.218 87.948,270.061 87.799,270.222 87.700 C 270.535 87.506,269.814 87.083,269.171 87.083 C 268.930 87.083,268.244 86.712,267.647 86.259 C 262.403 82.273,264.191 77.511,272.499 73.334 C 274.713 72.221,278.687 70.936,280.854 70.633 L 282.646 70.383 284.148 71.282 C 287.199 73.110,287.500 73.592,286.664 75.318 C 285.875 76.949,281.253 80.821,279.100 81.656 C 278.850 81.753,278.224 82.083,277.708 82.390 L 276.771 82.949 278.125 82.815 C 279.800 82.650,281.241 81.891,284.264 79.584 C 288.073 76.676,289.478 73.076,287.511 71.263 C 286.254 70.103,283.156 68.819,282.842 69.327 M119.375 76.893 C 118.630 76.990,117.224 77.172,116.250 77.299 C 94.844 80.086,81.875 84.264,81.875 88.374 C 81.875 89.566,82.539 89.478,82.869 88.243 C 83.594 85.534,92.723 82.157,104.896 80.095 C 106.615 79.804,108.161 79.526,108.333 79.477 C 108.852 79.328,118.790 77.935,120.387 77.787 C 121.828 77.653,122.470 77.332,122.193 76.884 C 122.041 76.638,121.331 76.640,119.375 76.893 M209.688 78.895 C 206.528 79.061,198.010 80.260,195.000 80.962 C 194.255 81.136,192.829 81.455,191.832 81.671 C 189.793 82.112,188.750 82.571,188.750 83.026 C 188.750 83.487,189.523 83.410,192.107 82.693 C 193.377 82.340,194.852 81.977,195.385 81.887 C 195.918 81.796,197.714 81.485,199.375 81.197 C 202.982 80.570,205.109 80.306,209.239 79.972 C 211.559 79.784,212.360 79.647,212.446 79.423 C 212.592 79.042,212.128 78.746,211.458 78.793 C 211.172 78.812,210.375 78.858,209.688 78.895 M94.382 84.531 C 93.918 85.190,92.919 86.667,92.163 87.813 C 91.406 88.958,90.432 90.413,89.998 91.044 C 89.242 92.145,88.469 93.546,86.187 97.946 L 85.145 99.955 82.416 100.832 C 78.160 102.201,74.583 104.247,74.583 105.315 C 74.583 105.999,74.997 105.973,75.694 105.245 C 76.683 104.212,82.779 101.458,84.075 101.458 C 84.360 101.458,84.129 102.513,83.732 103.027 C 83.140 103.795,80.959 110.111,80.110 113.517 C 78.848 118.578,78.645 120.417,79.346 120.417 C 79.744 120.417,80.208 118.839,80.208 117.488 C 80.208 116.236,82.508 108.645,83.897 105.313 C 85.407 101.689,85.629 101.256,86.144 100.923 C 86.898 100.436,96.946 98.752,97.255 99.061 C 97.306 99.112,97.206 99.371,97.032 99.636 C 96.609 100.281,94.929 104.202,94.483 105.583 C 94.245 106.318,93.855 106.939,93.313 107.440 C 92.866 107.853,92.500 108.320,92.500 108.478 C 92.500 108.866,93.098 109.068,93.389 108.778 C 93.824 108.342,93.958 108.535,93.958 109.597 C 93.958 114.937,99.822 115.063,105.657 109.849 L 106.979 108.668 107.083 109.486 C 107.233 110.664,107.894 110.858,109.396 110.166 C 110.528 109.645,113.171 107.616,113.698 106.863 C 114.156 106.209,114.271 106.382,114.271 107.727 C 114.271 110.375,116.074 110.442,119.896 107.935 L 121.354 106.979 121.285 108.033 C 121.200 109.327,121.528 109.695,122.589 109.496 C 123.620 109.302,125.635 107.886,126.405 106.814 C 127.041 105.928,127.112 105.891,128.397 105.771 C 130.582 105.567,132.623 104.552,134.583 102.694 C 135.230 102.081,135.779 101.761,136.354 101.661 C 136.813 101.582,137.454 101.444,137.780 101.356 L 138.372 101.195 138.023 101.871 C 137.831 102.242,136.978 103.568,136.129 104.817 C 133.859 108.152,133.976 109.102,136.633 108.912 C 138.327 108.791,140.316 107.841,142.046 106.328 L 143.146 105.366 143.005 106.429 C 142.592 109.542,145.925 109.238,150.573 105.741 C 151.404 105.116,152.083 104.644,152.083 104.694 C 152.083 104.743,151.944 105.137,151.773 105.569 C 151.590 106.032,151.441 107.210,151.409 108.438 L 151.354 110.521 151.875 110.521 C 152.366 110.521,152.398 110.452,152.440 109.296 C 152.468 108.535,152.607 107.936,152.807 107.714 C 152.999 107.502,153.160 106.857,153.202 106.126 C 153.316 104.158,153.665 103.280,154.950 101.720 C 155.608 100.922,156.521 99.773,156.979 99.167 C 158.371 97.327,158.108 97.422,162.517 97.166 C 166.448 96.939,167.256 96.756,166.716 96.216 C 166.533 96.033,165.587 96.028,162.872 96.195 C 158.663 96.453,158.931 96.534,159.881 95.290 C 160.960 93.876,161.161 92.693,160.349 92.537 C 159.958 92.461,157.872 94.414,156.805 95.854 C 156.263 96.584,156.174 96.618,153.448 97.151 C 150.012 97.824,148.257 98.479,148.163 99.126 C 148.084 99.669,148.399 99.709,149.415 99.284 C 150.313 98.909,154.201 97.917,154.773 97.917 C 155.615 97.917,153.310 101.936,151.622 103.408 C 148.462 106.167,144.383 108.307,144.032 107.391 C 143.699 106.523,145.438 102.600,146.574 101.657 C 146.740 101.520,146.875 101.184,146.875 100.912 C 146.875 100.205,146.136 100.256,145.755 100.990 C 144.406 103.583,138.293 108.125,136.150 108.125 C 135.189 108.125,135.215 107.894,136.360 106.250 C 138.399 103.324,138.959 102.398,139.079 101.755 C 139.318 100.480,138.368 99.657,137.393 100.295 C 136.596 100.818,136.622 100.709,137.644 99.247 C 139.595 96.455,138.782 93.912,136.562 95.862 C 135.348 96.928,134.758 98.142,134.610 99.881 L 134.479 101.408 133.333 102.325 C 131.387 103.883,129.487 104.792,128.176 104.792 C 127.678 104.792,127.670 104.767,127.812 103.550 C 128.140 100.719,126.052 100.581,123.738 103.281 C 122.583 104.629,118.318 107.841,116.813 108.496 C 115.042 109.268,114.642 107.957,115.830 105.272 C 116.985 102.660,116.192 102.778,113.284 105.651 C 109.445 109.442,107.220 110.596,108.392 108.188 C 109.117 106.699,109.366 106.300,110.677 104.519 C 111.981 102.747,112.131 102.289,111.406 102.296 C 111.077 102.299,110.689 102.649,110.104 103.473 C 108.825 105.272,104.458 109.553,102.600 110.830 C 97.917 114.049,94.786 113.084,94.969 108.477 C 94.996 107.777,95.228 107.444,96.928 105.664 C 104.237 98.012,110.489 88.364,109.168 86.773 C 108.032 85.404,103.605 89.345,99.682 95.217 C 98.825 96.499,98.125 97.618,98.125 97.704 C 98.125 97.790,97.070 97.977,95.781 98.118 C 93.202 98.401,90.929 98.759,88.542 99.257 C 87.682 99.436,86.858 99.583,86.711 99.583 C 86.417 99.583,87.842 96.798,89.671 93.796 C 90.279 92.797,90.958 91.651,91.178 91.250 C 91.814 90.094,93.491 87.546,94.844 85.679 C 96.046 84.020,96.248 83.333,95.536 83.333 C 95.365 83.333,94.846 83.872,94.382 84.531 M314.180 86.160 C 313.306 86.540,310.749 89.148,310.203 90.218 C 309.084 92.413,302.524 95.732,301.442 94.651 C 300.848 94.057,301.423 90.000,302.101 90.000 C 302.206 90.000,302.292 89.859,302.292 89.688 C 302.292 89.516,302.198 89.375,302.083 89.375 C 301.969 89.375,301.875 89.152,301.875 88.879 C 301.875 87.646,299.606 87.721,298.147 89.003 C 297.379 89.677,294.550 92.845,293.814 93.854 L 293.359 94.479 293.550 93.646 C 294.237 90.638,293.363 88.783,291.765 89.861 C 291.276 90.191,288.429 91.250,288.031 91.250 C 287.814 91.250,287.794 91.067,287.940 90.415 C 288.296 88.832,286.818 87.927,285.538 88.945 C 285.115 89.281,284.703 89.586,284.623 89.622 C 283.751 90.016,281.501 93.588,281.328 94.854 C 280.927 97.773,284.475 96.857,286.722 93.460 C 287.367 92.486,287.473 92.420,289.167 91.937 C 290.141 91.659,291.329 91.259,291.807 91.047 C 293.174 90.442,293.234 90.871,292.274 94.405 C 291.345 97.827,291.333 97.917,291.816 97.917 C 292.077 97.917,292.472 97.526,292.925 96.823 C 294.476 94.410,298.269 90.000,298.793 90.000 C 298.908 90.000,299.187 89.766,299.412 89.479 C 299.814 88.968,300.833 88.744,300.833 89.167 C 300.833 89.281,300.740 89.375,300.625 89.375 C 300.349 89.375,300.356 89.945,300.633 90.037 C 300.775 90.085,300.745 90.407,300.547 90.968 C 300.254 91.799,300.146 92.734,300.188 94.086 C 300.266 96.603,303.963 96.393,307.952 93.646 L 309.550 92.546 309.681 93.070 C 309.822 93.629,311.651 93.694,311.833 93.145 C 311.875 93.020,312.020 92.917,312.155 92.917 C 312.290 92.917,313.313 92.065,314.429 91.025 C 315.545 89.984,316.458 89.240,316.458 89.372 C 316.458 89.792,315.610 93.389,315.169 94.840 C 314.725 96.299,314.305 96.770,311.771 98.648 C 305.364 103.399,299.849 112.160,301.946 114.257 C 304.025 116.335,308.378 112.627,311.712 105.938 C 311.884 105.594,312.311 104.750,312.663 104.063 C 313.748 101.939,314.603 99.992,315.012 98.712 C 315.544 97.046,315.512 97.086,317.396 95.695 C 322.422 91.981,323.319 91.284,324.421 90.235 C 325.083 89.605,325.625 88.919,325.625 88.711 C 325.625 88.081,324.883 88.274,324.026 89.127 C 322.779 90.368,316.251 95.503,316.117 95.348 C 316.100 95.329,316.400 94.102,316.784 92.622 C 318.355 86.565,318.075 86.054,314.887 89.156 C 312.993 90.998,311.061 92.500,310.584 92.500 C 310.161 92.500,310.493 91.821,311.265 91.107 C 311.882 90.536,312.090 90.196,312.026 89.862 C 311.820 88.786,314.632 86.793,316.302 86.830 C 317.131 86.848,317.292 86.789,317.292 86.469 C 317.292 85.769,315.493 85.591,314.180 86.160 M108.333 87.887 C 108.333 88.787,104.145 95.530,101.667 98.620 C 100.746 99.768,96.356 104.709,96.143 104.837 C 95.686 105.112,96.038 104.133,97.360 101.458 C 98.521 99.106,98.706 98.844,99.271 98.749 C 99.956 98.633,100.342 97.708,99.706 97.708 C 99.275 97.708,100.759 95.156,102.284 93.276 C 105.315 89.536,108.333 86.848,108.333 87.887 M305.577 89.943 C 305.951 89.989,306.514 89.988,306.827 89.941 C 307.140 89.893,306.833 89.855,306.146 89.856 C 305.458 89.857,305.202 89.896,305.577 89.943 M286.872 90.260 C 286.864 91.030,286.593 91.477,286.173 91.417 C 285.660 91.344,285.480 90.738,285.842 90.302 C 286.149 89.932,286.876 89.902,286.872 90.260 M285.037 91.771 C 285.263 92.057,285.581 92.292,285.744 92.292 C 286.501 92.292,285.481 93.778,283.957 94.897 C 281.800 96.480,281.757 94.735,283.884 91.927 C 284.499 91.114,284.519 91.111,285.037 91.771 M188.581 93.772 C 187.378 95.598,187.624 95.436,183.744 96.965 C 181.757 97.748,179.577 99.042,179.423 99.531 C 179.262 100.041,179.988 100.030,180.667 99.513 C 181.699 98.727,186.458 96.636,186.458 96.969 C 186.458 97.037,186.208 97.488,185.901 97.973 C 184.247 100.588,182.389 104.358,181.883 106.126 C 181.438 107.681,181.830 109.883,182.588 110.087 C 184.109 110.495,187.317 109.945,190.729 108.691 C 192.031 108.213,202.157 103.348,202.440 103.065 C 202.591 102.914,202.623 102.699,202.518 102.529 C 202.341 102.242,200.396 102.996,194.738 105.543 C 193.621 106.047,192.568 106.458,192.400 106.458 C 192.231 106.458,191.793 106.641,191.426 106.864 C 191.059 107.087,190.684 107.224,190.593 107.168 C 190.503 107.112,189.871 107.342,189.190 107.680 C 187.968 108.287,184.928 109.167,184.055 109.167 C 182.426 109.167,182.593 105.747,184.364 102.816 C 184.573 102.470,184.813 101.960,184.898 101.681 C 185.132 100.911,187.270 97.260,187.849 96.641 C 188.550 95.892,194.026 94.538,199.410 93.782 C 202.559 93.340,203.438 93.150,203.438 92.910 C 203.438 92.156,197.593 92.890,191.589 94.398 C 188.672 95.130,188.732 95.153,189.676 93.679 C 190.509 92.376,190.579 92.081,190.052 92.088 C 189.829 92.091,189.258 92.745,188.581 93.772 M234.590 95.232 C 232.585 98.732,226.083 102.946,221.667 103.608 C 221.266 103.668,220.508 103.782,219.983 103.861 C 218.437 104.095,217.292 103.298,217.292 101.988 C 217.292 101.540,217.591 101.256,219.066 100.304 C 221.529 98.716,222.544 97.671,222.460 96.811 C 222.260 94.744,218.315 96.868,216.878 99.816 C 216.414 100.767,216.177 100.984,214.816 101.706 C 213.970 102.155,212.511 103.033,211.573 103.657 C 209.882 104.782,209.352 105.033,209.727 104.531 C 209.834 104.388,210.189 103.568,210.517 102.708 C 210.844 101.849,211.612 99.984,212.223 98.564 C 214.031 94.358,213.530 93.872,211.287 97.656 C 208.602 102.186,205.061 105.446,204.251 104.134 C 203.869 103.517,204.489 100.750,205.542 98.369 C 206.143 97.010,206.166 96.667,205.653 96.667 C 205.301 96.667,204.167 98.686,204.167 99.313 C 204.167 99.422,203.936 100.079,203.654 100.773 C 202.831 102.798,203.345 105.628,204.535 105.624 C 205.460 105.621,206.555 105.103,207.636 104.156 C 209.124 102.854,209.151 102.900,208.148 105.025 C 207.422 106.564,207.211 106.832,206.367 107.289 C 205.841 107.574,205.452 107.917,205.504 108.052 C 205.556 108.186,204.891 108.838,204.028 109.499 C 202.300 110.822,202.246 110.990,202.976 112.738 C 203.256 113.407,203.395 113.496,204.495 113.717 C 205.947 114.009,205.782 114.176,206.822 111.354 C 208.116 107.843,208.435 107.345,210.000 106.394 C 210.745 105.941,211.776 105.224,212.292 104.799 C 213.700 103.641,216.221 102.076,216.348 102.282 C 216.410 102.381,216.481 102.714,216.506 103.022 C 216.883 107.579,230.058 102.884,234.836 96.490 C 235.790 95.213,235.950 95.263,236.260 96.940 C 236.498 98.226,236.089 100.542,235.566 100.874 C 235.427 100.963,234.417 101.037,233.323 101.038 C 231.209 101.042,230.833 101.189,230.833 102.016 C 230.833 103.410,233.650 103.742,235.344 102.548 C 236.109 102.009,236.293 101.977,239.375 101.863 C 243.975 101.691,245.962 101.058,248.073 99.091 C 248.785 98.427,248.971 97.708,248.431 97.708 C 248.255 97.708,248.058 97.848,247.993 98.019 C 247.395 99.576,243.769 100.866,239.637 100.990 L 236.461 101.086 236.782 100.318 C 237.382 98.882,237.195 96.203,236.393 94.740 C 235.803 93.663,235.431 93.764,234.590 95.232 M227.340 96.716 C 226.801 98.442,226.770 98.751,227.135 98.747 C 227.738 98.739,228.292 97.941,228.491 96.794 C 228.874 94.585,228.023 94.527,227.340 96.716 M137.591 97.271 C 137.117 98.589,135.648 100.360,135.634 99.629 C 135.615 98.606,137.464 95.728,137.877 96.140 C 137.926 96.190,137.797 96.698,137.591 97.271 M221.323 97.537 C 220.930 97.976,219.044 99.310,218.154 99.780 L 217.661 100.040 218.049 99.371 C 218.263 99.003,218.819 98.388,219.285 98.003 C 220.809 96.745,222.351 96.393,221.323 97.537 M313.327 100.130 C 310.468 107.367,305.818 113.750,303.404 113.750 C 301.287 113.750,302.322 110.855,306.383 105.417 C 307.893 103.395,313.541 98.166,313.915 98.444 C 313.948 98.469,313.683 99.227,313.327 100.130 M160.470 99.060 C 156.843 100.636,155.623 106.681,158.610 108.276 C 159.774 108.896,163.242 108.779,165.417 108.045 C 169.066 106.813,174.071 103.108,173.447 102.099 C 173.188 101.680,172.814 101.876,171.524 103.109 C 167.623 106.839,161.144 108.649,158.863 106.646 C 157.842 105.750,157.569 103.542,158.478 103.542 C 159.141 103.542,161.488 102.205,162.190 101.428 C 163.744 99.708,162.601 98.134,160.470 99.060 M162.083 99.976 C 162.083 100.600,159.194 102.388,158.808 102.002 C 158.508 101.703,160.774 99.792,161.429 99.792 C 161.789 99.792,162.083 99.875,162.083 99.976 M234.375 101.862 C 234.868 102.008,234.851 102.029,234.063 102.257 C 233.029 102.555,232.878 102.556,232.149 102.269 C 231.046 101.834,233.045 101.469,234.375 101.862 M126.793 103.379 C 126.616 104.262,126.352 104.511,125.946 104.174 C 125.497 103.801,125.546 103.412,126.088 103.033 C 126.775 102.551,126.942 102.633,126.793 103.379 M125.599 106.000 C 124.552 107.384,122.478 108.804,122.188 108.335 C 121.949 107.948,123.008 105.753,123.915 104.756 L 124.422 104.199 125.145 104.922 C 125.767 105.545,125.830 105.695,125.599 106.000 M205.811 110.637 C 205.089 112.545,204.706 112.780,204.213 111.619 C 203.983 111.078,204.023 111.011,205.054 110.225 C 206.359 109.230,206.346 109.224,205.811 110.637 " stroke="none" fill="#000000" fill-rule="evenodd"></path></g></svg>