<svg id="svg" xmlns="http://www.w3.org/2000/svg" xmlns:xlink="http://www.w3.org/1999/xlink" width="400" height="225" viewBox="0, 0, 400,225"><g id="svgg"><path id="path0" d="M99.710 84.912 C 99.640 85.094,99.583 86.360,99.583 87.725 L 99.583 90.208 121.563 90.208 C 140.885 90.208,143.542 90.171,143.542 89.898 C 143.542 89.630,142.432 89.581,135.278 89.534 C 128.891 89.492,126.994 89.420,126.927 89.219 C 126.859 89.013,128.606 88.958,135.206 88.958 C 143.062 88.958,143.568 88.936,143.502 88.594 C 143.437 88.255,142.847 88.225,135.153 88.175 C 127.407 88.124,125.143 87.949,128.156 87.634 C 128.860 87.560,132.610 87.500,136.489 87.500 C 142.619 87.500,143.542 87.459,143.542 87.188 C 143.542 86.915,142.477 86.875,135.208 86.875 C 129.792 86.875,126.875 86.802,126.875 86.667 C 126.875 86.531,129.797 86.458,135.226 86.458 C 141.814 86.458,143.558 86.403,143.490 86.198 C 143.423 85.997,141.526 85.925,135.139 85.883 C 127.985 85.836,126.875 85.787,126.875 85.518 C 126.875 85.249,127.970 85.208,135.226 85.208 C 141.814 85.208,143.558 85.153,143.490 84.948 C 143.341 84.503,99.881 84.468,99.710 84.912 M264.167 85.000 C 264.167 85.410,264.306 85.417,272.396 85.417 C 277.743 85.417,280.625 85.490,280.625 85.625 C 280.625 85.760,277.743 85.833,272.396 85.833 C 265.220 85.833,264.167 85.873,264.167 86.146 C 264.167 86.418,265.220 86.458,272.396 86.458 C 279.572 86.458,280.625 86.498,280.625 86.771 C 280.625 87.043,279.572 87.083,272.396 87.083 C 265.220 87.083,264.167 87.123,264.167 87.396 C 264.167 87.668,265.220 87.708,272.396 87.708 C 277.743 87.708,280.625 87.781,280.625 87.917 C 280.625 88.052,277.743 88.125,272.396 88.125 C 264.306 88.125,264.167 88.132,264.167 88.542 C 264.167 88.951,264.306 88.958,272.396 88.958 C 277.743 88.958,280.625 89.031,280.625 89.167 C 280.625 89.302,277.743 89.375,272.396 89.375 C 265.220 89.375,264.167 89.415,264.167 89.688 C 264.167 89.963,266.736 90.000,286.042 90.000 L 307.917 90.000 307.917 87.428 L 307.917 84.855 305.573 84.720 C 298.881 84.335,264.167 84.569,264.167 85.000 M150.469 85.312 C 150.326 85.475,150.208 85.752,150.208 85.929 C 150.208 86.105,150.115 86.250,150.000 86.250 C 149.885 86.250,149.792 86.016,149.792 85.729 C 149.792 85.313,149.688 85.208,149.271 85.208 C 148.850 85.208,148.750 85.311,148.750 85.746 C 148.750 86.240,148.697 86.272,148.094 86.139 L 147.438 85.995 147.571 86.800 C 147.644 87.242,147.705 87.721,147.706 87.865 C 147.707 88.008,147.896 88.125,148.125 88.125 C 148.449 88.125,148.542 87.986,148.542 87.500 C 148.542 86.925,148.600 86.875,149.271 86.875 C 149.672 86.875,150.000 86.978,150.000 87.103 C 150.000 87.557,149.326 88.458,148.732 88.799 C 148.062 89.183,147.916 89.792,148.493 89.792 C 149.626 89.792,151.042 88.069,151.042 86.691 C 151.042 86.353,151.159 86.034,151.302 85.982 C 151.495 85.911,151.505 85.789,151.339 85.508 C 151.046 85.009,150.787 84.951,150.469 85.312 M162.344 85.312 C 162.201 85.474,162.083 85.752,162.083 85.929 C 162.083 86.429,161.704 86.306,161.629 85.781 C 161.585 85.471,161.395 85.289,161.066 85.242 C 160.629 85.180,160.582 85.238,160.676 85.729 C 160.779 86.267,160.756 86.282,160.050 86.149 C 159.317 86.012,159.317 86.012,159.450 86.678 C 159.523 87.044,159.583 87.520,159.583 87.734 C 159.583 87.986,159.731 88.125,160.000 88.125 C 160.324 88.125,160.417 87.986,160.417 87.500 C 160.417 86.921,160.472 86.875,161.168 86.875 C 162.258 86.875,161.474 88.898,160.365 88.951 C 159.900 88.973,160.275 89.583,160.753 89.583 C 161.605 89.583,162.643 88.313,162.816 87.061 C 162.908 86.390,163.056 86.042,163.249 86.042 C 163.598 86.042,163.611 85.936,163.326 85.403 C 163.073 84.931,162.709 84.897,162.344 85.312 M203.614 85.321 C 203.546 85.498,203.550 85.703,203.623 85.776 C 203.830 85.983,202.679 87.086,201.924 87.403 C 201.271 87.678,200.859 88.220,201.110 88.472 C 201.299 88.660,202.228 88.367,202.590 88.006 C 202.887 87.708,202.917 87.766,202.917 88.631 C 202.917 89.339,202.997 89.583,203.229 89.583 C 203.468 89.583,203.542 89.321,203.542 88.469 C 203.542 87.562,203.658 87.194,204.163 86.497 C 204.515 86.010,204.731 85.501,204.661 85.320 C 204.502 84.905,203.773 84.906,203.614 85.321 M234.531 85.144 C 234.331 85.196,234.167 85.366,234.167 85.522 C 234.167 85.914,233.437 86.108,232.570 85.945 C 231.898 85.819,231.848 85.845,231.911 86.290 C 231.971 86.714,232.084 86.766,232.865 86.731 C 233.953 86.683,233.857 87.004,232.400 88.286 C 230.884 89.621,231.434 90.159,233.089 88.960 L 233.949 88.338 234.409 88.960 C 234.981 89.734,235.625 89.795,235.625 89.077 C 235.625 88.752,235.401 88.411,235.002 88.127 L 234.379 87.683 234.798 86.862 C 235.028 86.411,235.356 86.042,235.525 86.042 C 235.897 86.042,235.929 85.596,235.583 85.250 C 235.327 84.994,235.167 84.978,234.531 85.144 M259.180 85.196 C 258.932 85.352,258.928 85.441,259.153 85.713 C 259.390 85.998,259.353 86.042,258.880 86.042 C 258.472 86.042,258.333 85.936,258.333 85.625 C 258.333 85.347,258.194 85.208,257.917 85.208 C 257.688 85.208,257.500 85.342,257.500 85.505 C 257.500 85.668,257.172 86.231,256.771 86.757 C 255.699 88.161,256.211 88.870,257.334 87.536 C 258.046 86.690,258.926 86.463,258.423 87.256 C 257.887 88.100,257.269 88.729,256.842 88.865 C 256.169 89.078,256.348 89.864,257.031 89.696 C 258.089 89.435,259.583 87.676,259.583 86.691 C 259.583 86.461,259.768 86.219,260.000 86.146 C 260.470 85.997,260.539 85.623,260.167 85.250 C 259.870 84.953,259.588 84.938,259.180 85.196 M207.785 85.677 C 207.854 85.935,207.912 86.926,207.914 87.880 C 207.917 89.956,208.549 90.407,208.750 88.477 C 208.850 87.517,208.870 87.491,209.271 87.795 C 209.905 88.277,210.459 88.217,210.379 87.674 C 210.334 87.371,210.073 87.143,209.583 86.979 C 208.948 86.767,208.846 86.638,208.790 85.972 C 208.733 85.309,208.655 85.208,208.192 85.208 C 207.742 85.208,207.679 85.280,207.785 85.677 M227.917 85.509 C 227.917 85.674,227.354 86.304,226.667 86.909 C 225.058 88.325,224.947 88.831,226.375 88.234 C 227.093 87.934,227.111 87.938,227.075 88.390 C 226.998 89.340,227.085 89.583,227.500 89.583 C 227.869 89.583,227.917 89.444,227.917 88.370 C 227.917 87.344,227.998 87.080,228.438 86.667 C 228.724 86.398,228.958 85.959,228.958 85.693 C 228.958 85.315,228.844 85.208,228.438 85.208 C 228.123 85.208,227.917 85.327,227.917 85.509 M306.250 85.521 C 306.250 85.795,304.718 85.833,293.708 85.833 C 285.415 85.833,281.237 85.763,281.373 85.627 C 281.504 85.496,286.095 85.400,293.863 85.365 C 300.619 85.334,306.169 85.286,306.198 85.259 C 306.227 85.231,306.250 85.349,306.250 85.521 M126.250 85.625 C 126.250 85.762,121.944 85.833,113.750 85.833 C 105.556 85.833,101.250 85.762,101.250 85.625 C 101.250 85.488,105.556 85.417,113.750 85.417 C 121.944 85.417,126.250 85.488,126.250 85.625 M196.510 85.569 C 195.686 85.643,195.318 86.036,195.795 86.331 C 196.259 86.617,198.333 86.187,198.333 85.804 C 198.333 85.401,198.353 85.403,196.510 85.569 M220.872 85.780 C 219.568 85.842,219.358 85.903,219.419 86.207 C 219.471 86.461,219.676 86.552,220.142 86.525 C 221.153 86.467,221.149 87.883,220.136 88.724 C 219.668 89.112,219.702 89.583,220.198 89.583 C 220.597 89.583,221.667 88.405,221.667 87.965 C 221.667 87.842,222.042 87.420,222.500 87.027 C 223.437 86.225,223.604 85.601,222.865 85.666 C 222.607 85.689,221.710 85.740,220.872 85.780 M246.801 86.420 C 246.661 87.298,245.725 88.663,245.156 88.819 C 244.645 88.960,244.692 89.583,245.214 89.583 C 246.176 89.583,248.170 86.793,247.834 85.917 C 247.588 85.278,246.933 85.597,246.801 86.420 M176.502 86.351 C 176.556 86.726,176.691 86.763,177.760 86.699 C 179.454 86.599,179.286 87.406,177.344 88.695 C 176.786 89.065,176.726 89.584,177.240 89.582 C 178.207 89.578,179.988 87.453,179.996 86.291 C 180.000 85.823,179.957 85.813,178.221 85.872 C 176.574 85.928,176.447 85.963,176.502 86.351 M182.589 86.536 C 182.654 86.866,182.708 87.594,182.708 88.154 L 182.708 89.173 184.391 89.125 C 185.316 89.098,186.101 89.026,186.135 88.965 C 186.169 88.904,186.259 88.195,186.335 87.389 L 186.475 85.923 184.472 85.930 L 182.469 85.938 182.589 86.536 M244.167 86.146 C 244.167 86.318,244.249 86.458,244.350 86.458 C 244.450 86.458,244.649 86.740,244.792 87.083 C 244.934 87.427,245.180 87.708,245.338 87.708 C 245.727 87.708,245.700 86.976,245.289 86.347 C 244.920 85.784,244.167 85.649,244.167 86.146 M250.428 86.094 C 250.446 86.491,251.636 87.348,251.984 87.214 C 252.435 87.042,252.359 86.529,251.829 86.158 C 251.273 85.769,250.412 85.729,250.428 86.094 M154.896 87.083 C 154.438 87.640,153.898 88.102,153.698 88.110 C 153.110 88.134,153.260 88.750,153.854 88.750 C 154.141 88.750,154.375 88.656,154.375 88.542 C 154.375 88.427,154.469 88.333,154.583 88.333 C 154.698 88.333,154.792 88.615,154.792 88.958 C 154.792 89.444,154.884 89.583,155.208 89.583 C 155.557 89.583,155.625 89.444,155.625 88.730 C 155.625 88.198,155.789 87.646,156.061 87.264 C 157.078 85.836,156.054 85.677,154.896 87.083 M166.510 87.222 C 165.150 88.605,165.131 89.252,166.472 88.534 C 166.829 88.343,166.875 88.390,166.875 88.951 C 166.875 89.444,166.967 89.583,167.292 89.583 C 167.649 89.583,167.708 89.444,167.708 88.607 C 167.708 87.898,167.830 87.502,168.151 87.159 C 169.489 85.735,167.913 85.795,166.510 87.222 M222.031 86.394 C 221.831 86.446,221.503 86.446,221.302 86.394 C 221.102 86.341,221.266 86.298,221.667 86.298 C 222.068 86.298,222.232 86.341,222.031 86.394 M100.625 86.771 C 100.625 86.943,100.531 87.083,100.417 87.083 C 100.302 87.083,100.208 86.943,100.208 86.771 C 100.208 86.599,100.302 86.458,100.417 86.458 C 100.531 86.458,100.625 86.599,100.625 86.771 M126.250 86.771 C 126.250 87.045,124.722 87.083,113.750 87.083 C 102.778 87.083,101.250 87.045,101.250 86.771 C 101.250 86.497,102.778 86.458,113.750 86.458 C 124.722 86.458,126.250 86.497,126.250 86.771 M195.000 87.060 C 195.000 87.548,195.026 87.555,196.365 87.418 C 197.933 87.257,198.005 87.718,196.546 88.579 C 195.699 89.079,195.607 89.583,196.362 89.583 C 197.144 89.583,198.527 88.205,198.674 87.279 L 198.792 86.536 196.896 86.549 C 195.041 86.562,195.001 86.573,195.000 87.060 M253.129 87.078 C 252.887 87.418,252.224 87.910,251.657 88.170 C 250.538 88.683,250.221 89.375,251.105 89.375 C 252.148 89.375,254.167 87.696,254.167 86.829 C 254.167 86.258,253.619 86.389,253.129 87.078 M306.250 86.771 C 306.250 87.045,304.734 87.083,293.854 87.083 C 282.975 87.083,281.458 87.045,281.458 86.771 C 281.458 86.497,282.975 86.458,293.854 86.458 C 304.734 86.458,306.250 86.497,306.250 86.771 M172.292 87.083 C 172.292 87.361,172.431 87.500,172.708 87.500 C 172.986 87.500,173.125 87.361,173.125 87.083 C 173.125 86.806,172.986 86.667,172.708 86.667 C 172.431 86.667,172.292 86.806,172.292 87.083 M185.377 87.448 C 185.272 88.715,183.835 88.770,183.715 87.511 L 183.635 86.667 184.538 86.667 L 185.442 86.667 185.377 87.448 M214.792 87.396 C 214.792 87.809,214.883 87.930,215.156 87.877 C 215.357 87.838,215.521 87.622,215.521 87.396 C 215.521 87.170,215.357 86.953,215.156 86.915 C 214.883 86.862,214.792 86.983,214.792 87.396 M239.454 87.178 C 239.306 87.564,239.522 87.917,239.908 87.917 C 240.089 87.917,240.208 87.710,240.208 87.396 C 240.208 86.823,239.652 86.662,239.454 87.178 M188.581 87.448 C 188.697 88.053,192.708 88.111,192.708 87.508 C 192.708 87.109,192.582 87.083,190.610 87.083 C 188.723 87.083,188.518 87.120,188.581 87.448 M100.530 88.542 C 100.530 89.000,100.458 89.375,100.369 89.375 C 100.281 89.375,100.208 89.000,100.208 88.542 C 100.208 88.083,100.281 87.708,100.369 87.708 C 100.458 87.708,100.530 88.083,100.530 88.542 M126.250 87.917 C 126.250 88.053,121.944 88.125,113.750 88.125 C 105.556 88.125,101.250 88.053,101.250 87.917 C 101.250 87.780,105.556 87.708,113.750 87.708 C 121.944 87.708,126.250 87.780,126.250 87.917 M306.250 87.917 C 306.250 88.053,301.979 88.125,293.854 88.125 C 285.729 88.125,281.458 88.053,281.458 87.917 C 281.458 87.780,285.729 87.708,293.854 87.708 C 301.979 87.708,306.250 87.780,306.250 87.917 M172.292 88.958 C 172.292 89.236,172.431 89.375,172.708 89.375 C 172.986 89.375,173.125 89.236,173.125 88.958 C 173.125 88.681,172.986 88.542,172.708 88.542 C 172.431 88.542,172.292 88.681,172.292 88.958 M126.250 89.167 C 126.250 89.303,121.944 89.375,113.750 89.375 C 105.556 89.375,101.250 89.303,101.250 89.167 C 101.250 89.030,105.556 88.958,113.750 88.958 C 121.944 88.958,126.250 89.030,126.250 89.167 M306.250 89.167 C 306.250 89.303,301.979 89.375,293.854 89.375 C 285.729 89.375,281.458 89.303,281.458 89.167 C 281.458 89.030,285.729 88.958,293.854 88.958 C 301.979 88.958,306.250 89.030,306.250 89.167 " stroke="none" fill="#000000" fill-rule="evenodd"></path></g></svg>