<svg id="svg" xmlns="http://www.w3.org/2000/svg" xmlns:xlink="http://www.w3.org/1999/xlink" width="400" height="225" viewBox="0, 0, 400,225"><g id="svgg"><path id="path0" d="M99.583 28.138 C 99.583 28.264,99.853 28.993,100.183 29.757 C 100.513 30.521,101.135 31.990,101.565 33.021 C 101.996 34.052,102.605 35.505,102.920 36.250 C 103.234 36.995,103.844 38.448,104.275 39.479 C 104.706 40.510,105.456 42.292,105.941 43.438 C 106.427 44.583,107.317 46.693,107.919 48.125 C 108.522 49.557,109.430 51.714,109.937 52.917 C 110.445 54.120,111.187 55.901,111.587 56.875 C 111.987 57.849,112.538 59.161,112.813 59.792 C 113.087 60.422,113.657 61.781,114.081 62.813 C 114.813 64.596,115.306 65.769,117.615 71.221 C 118.918 74.296,118.754 74.167,121.346 74.167 L 123.495 74.167 124.072 72.760 C 124.389 71.987,124.954 70.651,125.328 69.792 C 125.701 68.932,126.259 67.620,126.566 66.875 C 128.155 63.031,129.987 58.664,133.122 51.250 C 134.406 48.214,135.626 45.307,135.833 44.792 C 136.241 43.774,136.686 42.715,140.211 34.375 C 141.494 31.339,142.592 28.643,142.650 28.385 L 142.757 27.917 138.594 27.917 L 134.431 27.917 133.749 29.531 C 133.373 30.419,132.802 31.755,132.479 32.500 C 132.156 33.245,131.362 35.120,130.716 36.667 C 130.069 38.214,129.165 40.370,128.708 41.458 C 128.251 42.547,127.664 43.953,127.403 44.583 C 125.430 49.346,123.016 55.123,122.526 56.250 C 122.203 56.995,121.764 58.014,121.551 58.514 L 121.165 59.424 120.903 58.827 C 120.759 58.498,120.295 57.385,119.871 56.354 C 119.179 54.670,116.657 48.662,115.630 46.250 C 115.160 45.147,113.716 41.712,112.608 39.063 C 112.177 38.031,111.567 36.578,111.253 35.833 C 110.939 35.089,110.329 33.635,109.899 32.604 C 109.469 31.573,108.853 30.120,108.531 29.375 L 107.945 28.021 103.764 27.964 C 100.821 27.925,99.583 27.976,99.583 28.138 " stroke="none" fill="#000000" fill-rule="evenodd"></path></g></svg>