<svg id="svg" xmlns="http://www.w3.org/2000/svg" xmlns:xlink="http://www.w3.org/1999/xlink" width="400" height="225" viewBox="0, 0, 400,225"><g id="svgg"><path id="path0" d="M201.727 28.385 C 201.787 28.643,202.277 29.885,202.817 31.146 C 203.357 32.406,204.009 33.953,204.267 34.583 C 204.525 35.214,206.401 39.667,208.436 44.479 C 210.470 49.292,212.344 53.745,212.600 54.375 C 213.433 56.431,216.879 64.654,217.488 66.042 C 218.015 67.241,218.465 68.313,220.271 72.669 C 220.851 74.070,220.926 74.101,223.470 74.003 L 225.585 73.921 226.529 71.700 C 227.047 70.478,228.233 67.651,229.162 65.417 C 230.092 63.182,231.074 60.839,231.344 60.208 C 231.829 59.075,233.336 55.495,235.926 49.325 C 238.584 42.990,240.684 37.993,241.245 36.667 C 241.561 35.922,242.171 34.469,242.601 33.438 C 243.032 32.406,243.643 30.953,243.960 30.208 C 244.277 29.464,244.601 28.641,244.680 28.381 L 244.823 27.908 240.628 27.964 L 236.433 28.021 235.810 29.479 C 235.203 30.898,233.143 35.818,232.189 38.125 C 231.928 38.755,231.274 40.302,230.736 41.563 C 230.197 42.823,229.586 44.276,229.377 44.792 C 229.169 45.307,228.558 46.760,228.019 48.021 C 227.481 49.281,226.826 50.828,226.565 51.458 C 226.303 52.089,225.652 53.635,225.118 54.896 C 224.584 56.156,223.949 57.700,223.708 58.326 L 223.270 59.465 222.783 58.430 C 222.516 57.861,221.634 55.802,220.824 53.854 C 220.015 51.906,219.029 49.590,218.634 48.706 C 218.240 47.822,217.917 47.033,217.917 46.952 C 217.917 46.871,217.640 46.187,217.302 45.433 C 216.964 44.679,216.301 43.125,215.828 41.979 C 214.808 39.503,213.708 36.866,212.918 35.000 C 212.602 34.255,211.801 32.357,211.138 30.781 L 209.932 27.917 205.775 27.917 L 201.618 27.917 201.727 28.385 " stroke="none" fill="#000000" fill-rule="evenodd"></path></g></svg>