<svg id="svg" xmlns="http://www.w3.org/2000/svg" xmlns:xlink="http://www.w3.org/1999/xlink" width="400" height="225" viewBox="0, 0, 400,225"><g id="svgg"><path id="path0" d="M265.625 28.225 C 265.625 28.399,266.527 30.299,267.629 32.448 C 268.731 34.596,270.712 38.464,272.030 41.042 C 276.087 48.973,278.929 54.520,280.966 58.483 L 282.917 62.279 282.917 68.118 L 282.917 73.958 286.771 73.958 L 290.625 73.958 290.625 67.920 L 290.625 61.881 292.212 58.805 C 293.084 57.113,294.479 54.417,295.311 52.813 C 296.142 51.208,297.831 47.927,299.063 45.521 C 300.295 43.115,301.842 40.115,302.501 38.854 C 305.707 32.721,307.917 28.351,307.917 28.145 C 307.917 27.620,299.685 27.853,299.420 28.385 C 299.291 28.643,297.437 32.229,295.300 36.354 C 293.162 40.479,290.615 45.401,289.638 47.292 C 286.483 53.398,286.732 53.063,286.203 51.922 C 286.006 51.495,283.140 45.943,279.836 39.583 L 273.827 28.021 269.726 27.964 C 266.171 27.915,265.625 27.950,265.625 28.225 " stroke="none" fill="#000000" fill-rule="evenodd"></path></g></svg>